<svg
      class="svg-logo"
      viewBox="0 0 257 41"
      xmlns="http://www.w3.org/2000/svg"
    >
      <path
        id="svg-aqui"
        d="M171.845 24.298h3.828l.317-12.114-4.145 12.114zm-13.207 11.419l13.645-32.69h10.847l1.454 32.69h-9.381l.163-4.815h-5.695l-1.629 4.815h-9.404zM197.802 19.17c-.632 3.39-.827 5.71-.587 6.964.239 1.254.95 1.881 2.13 1.881 1.166 0 2.096-.617 2.79-1.848.693-1.231 1.36-3.564 1.999-6.998.64-3.433.84-5.766.608-7.006-.236-1.24-.936-1.86-2.101-1.86-1.181 0-2.125.628-2.83 1.88-.707 1.255-1.377 3.585-2.01 6.986M201.75 41l-2.839-4.679c-.11 0-.28.007-.512.021a9.863 9.863 0 01-.512.023c-4.144 0-7.075-1.476-8.794-4.433-1.717-2.954-2.074-7.137-1.07-12.538 1.008-5.402 2.916-9.59 5.73-12.56 2.814-2.97 6.268-4.456 10.365-4.456 4.08 0 6.966 1.48 8.66 4.444 1.694 2.962 2.037 7.154 1.028 12.572-.58 3.121-1.462 5.83-2.647 8.127-1.183 2.298-2.695 4.239-4.534 5.823l3.48 4.163L201.748 41M215.566 24.028l3.908-21.002h9.618l-4.07 21.876c-.18.955-.13 1.66.149 2.115.277.455.795.683 1.551.683.77 0 1.38-.228 1.828-.683.447-.454.76-1.16.937-2.115l4.072-21.876h9.665l-3.908 21.002c-.795 4.27-2.333 7.392-4.615 9.372-2.283 1.977-5.48 2.965-9.592 2.965-4.096 0-6.909-.988-8.44-2.965-1.53-1.98-1.898-5.101-1.103-9.372M241.11 35.717l6.083-32.69h9.642l-6.082 32.69h-9.643"
      />
    </svg>