<?xml version="1.0" encoding="utf-8"?>
<svg class="svg-logo" viewBox="0 0 217.114 41" xmlns="http://www.w3.org/2000/svg">
  <path id="path-1" d="M 172.609 28.943 L 176.437 28.943 L 176.754 16.829 L 172.609 28.943 Z M 159.402 40.362 L 173.047 7.672 L 183.894 7.672 L 185.348 40.362 L 175.967 40.362 L 176.13 35.547 L 170.435 35.547 L 168.806 40.362 L 159.402 40.362 Z M 198.566 23.815 C 197.934 27.205 197.739 29.525 197.979 30.779 C 198.218 32.033 198.929 32.66 200.109 32.66 C 201.275 32.66 202.205 32.043 202.899 30.812 C 203.592 29.581 204.259 27.248 204.898 23.814 C 205.538 20.381 205.738 18.048 205.506 16.808 C 205.27 15.568 204.57 14.948 203.405 14.948 C 202.224 14.948 201.28 15.576 200.575 16.828 C 199.868 18.083 199.198 20.413 198.565 23.814 M 202.514 45.645 L 199.675 40.966 C 199.565 40.966 199.395 40.973 199.163 40.987 C 198.992 41 198.821 41.007 198.651 41.01 C 194.507 41.01 191.576 39.534 189.857 36.577 C 188.14 33.623 187.783 29.44 188.787 24.039 C 189.795 18.637 191.703 14.449 194.517 11.479 C 197.331 8.509 200.785 7.023 204.882 7.023 C 208.962 7.023 211.848 8.503 213.542 11.467 C 215.236 14.429 215.579 18.621 214.57 24.039 C 213.99 27.16 213.108 29.869 211.923 32.166 C 210.74 34.464 209.228 36.405 207.389 37.989 L 210.869 42.152 L 202.512 45.645 M 216.33 28.673 L 220.238 7.671 L 229.856 7.671 L 225.786 29.547 C 225.606 30.502 225.656 31.207 225.935 31.662 C 226.212 32.117 226.73 32.345 227.486 32.345 C 228.256 32.345 228.866 32.117 229.314 31.662 C 229.761 31.208 230.074 30.502 230.251 29.547 L 234.323 7.671 L 243.988 7.671 L 240.08 28.673 C 239.285 32.943 237.747 36.065 235.465 38.045 C 233.182 40.022 229.985 41.01 225.873 41.01 C 221.777 41.01 218.964 40.022 217.433 38.045 C 215.903 36.065 215.535 32.944 216.33 28.673 M 241.874 40.362 L 247.957 7.672 L 257.599 7.672 L 251.517 40.362 L 241.874 40.362" style="visibility: hidden;">
    <title>AQUI</title>
  </path>
  <g transform="matrix(1, 0, 0, 1, -1, 0)">
    <path style="" d="M 194.903 8.019 L 188.709 31.832 C 186.701 36.917 184.513 39.003 179.378 39.688 C 178.132 39.854 172.628 40.742 168.281 37.416 C 165.233 35.084 163.232 28.71 164.967 20.176 L 173.567 20.811 C 172.505 31.928 177.616 32.429 179.801 27.706 L 185.211 7.605 L 194.903 8.019 Z">
      <title>J</title>
    </path>
    <path style="" d="M 202.079 7.536 L 212.929 7.547 L 214.363 40.219 L 205.003 40.199 L 205.167 35.4 L 199.477 35.411 L 197.825 40.216 L 188.435 40.219 L 202.079 7.536 Z">
      <title>A</title>
    </path>
    <path style="fill: rgb(255, 255, 255);" d="M 205.737 16.802 L 205.487 28.971 L 201.587 28.94 L 205.737 16.802 Z">
      <title>Abertura do A</title>
    </path>
    <path style="" d="M 203.254 6.579 L 206.133 2.468 L 214.56 2.673 L 212.299 6.58 L 203.254 6.579 Z">
      <title>Acento</title>
    </path>
  </g>
</svg>