<?xml version="1.0" encoding="utf-8"?>
<svg viewBox="156.022 -10.949 344.891 279.197" xmlns="http://www.w3.org/2000/svg">
  <g transform="matrix(1, 0, 0, 1, 120.97081, -16.510948)">
    <path style="fill: rgb(0, 117, 53)" d="M 363.89 38.006 L 320.969 203.017 C 307.055 238.254 291.893 252.709 256.31 257.455 C 247.676 258.606 209.536 264.759 179.414 241.712 C 158.293 225.552 144.427 181.384 156.45 122.248 L 216.043 126.648 C 208.684 203.683 244.101 207.154 259.241 174.426 L 296.73 35.137 L 363.89 38.006 Z">
      <title>J</title>
    </path>
    <path style="fill: rgb(144, 184, 35)" d="M 50.144 258.779 L 118.565 258.779 L 134.914 171.419 L 148.815 259.255 L 220.493 259.255 L 191.302 157.609 C 212.955 149.869 226.126 134.601 226.569 133.962 C 237.542 121.346 241.381 107.417 241.907 103.263 C 242.904 100.758 249.941 68.411 229.719 49.031 C 228.884 48.623 215.201 29.776 171.303 30.408 L 93.711 30.211 L 50.144 258.779 Z">
      <title>R</title>
    </path>
    <path fill-rule="evenodd" d="M 152.141 77.435 L 154.835 77.498 C 167.669 76.93 171.395 84.367 171.395 84.367 C 175.233 88.921 174.096 100.141 173.451 104.4 C 172.805 108.66 170.468 118.617 163.312 125.282 C 157.677 130.916 141.98 132.958 141.931 132.067">
      <title>Abertura do R</title>
    </path>
  </g>
</svg>